<svg id="图层_1" data-name="图层 1" xmlns="http://www.w3.org/2000/svg" xmlns:xlink="http://www.w3.org/1999/xlink" viewBox="0 0 32 32"><defs><style>.cls-1{fill:none;}.cls-2{clip-path:url(#clip-path);}.cls-3{fill:#fff;}</style><clipPath id="clip-path"><rect id="SVGID" class="cls-1" x="3.93" y="4.78" width="24.09" height="23.33"/></clipPath></defs><title>产品化</title><g class="cls-2"><path class="cls-3" d="M25.86,8.9,17.64,5.06a5,5,0,0,0-3.33,0L5.89,8.9a3.4,3.4,0,0,0-2,3.07v8.82a3.39,3.39,0,0,0,2,3.07l8.42,3.84a5.85,5.85,0,0,0,1.76.38,5.79,5.79,0,0,0,1.76-.38l8.23-3.84a3.41,3.41,0,0,0,2-3.07V12A3.62,3.62,0,0,0,25.86,8.9ZM9.8,18.3l.59.38h.2a.51.51,0,0,0,.58-.57V14.85l3.53,1.72v9.21L6.87,21.94a1.28,1.28,0,0,1-.79-1.15V12.54l3.14,1.54v3.45c0,.39.19.58.58.77Zm15.87-5.76v8.25a1.05,1.05,0,0,1-.79,1.15l-8,3.84V16.57Zm-.79-1.91-9,4.22-9-4.22,8.22-3.84a1.52,1.52,0,0,1,.78-.19.73.73,0,0,1,.59.19Zm0,0"/></g></svg>