<svg id="图层_1" data-name="图层 1" xmlns="http://www.w3.org/2000/svg" viewBox="0 0 40 40"><defs><style>.cls-1{opacity:0;}.cls-2{fill:none;}.cls-3{fill:#fff;}</style></defs><title>人机交互</title><rect class="cls-1" x="-0.02" width="40" height="40"/><rect id="SVGID" class="cls-2" x="4.98" y="5" width="30" height="30.04"/><path class="cls-3" d="M34.59,20.79c-.86-4-3.71-8-6.1-7.28a3.33,3.33,0,0,0-1.93,1.32,2.72,2.72,0,0,0-2.33-.06A3,3,0,0,0,22.88,16a3.25,3.25,0,0,0-3,.07,3.25,3.25,0,0,0-.65.38c-2.6-3.68-4.73-5.34-6.65-4.91-2.72.62-2.72,3-.66,6.09l4,6.12c-2.17-.41-3.74-.06-4.67,1.18-1.52,2,.09,3.92,3.83,5.6l7.23,3.22a1.07,1.07,0,0,0,.87-2l-7.23-3.21a8.79,8.79,0,0,1-2.86-1.79c-.26-.3-.27-.39-.13-.57.53-.71,2.18-.71,5.05.36A1.07,1.07,0,0,0,19.27,25l-5.52-8.54c-1.38-2.06-1.38-2.66-.67-2.82.94-.21,2.92,1.65,5.55,5.71a5.53,5.53,0,0,0,.91,1.44,1.07,1.07,0,0,0,1.74-1.25c-.26-.41-.51-.82-.78-1.23,0-.13.13-.21.32-.29.75-.36,1.22-.22,1.74.52a1.07,1.07,0,0,0,2-.55c0-.71.24-1.05.58-1.21s.68,0,1.26.54a1.1,1.1,0,0,0,1.12.23,1.07,1.07,0,0,0,.68-.91,1.08,1.08,0,0,1,.94-1c.66-.19,2.78,2.77,3.41,5.68a20.51,20.51,0,0,1,0,7.47,1.09,1.09,0,0,0,.38,1,1.07,1.07,0,0,0,1.06.16,1,1,0,0,0,.67-.83,22.15,22.15,0,0,0,0-8.26Z"/><path class="cls-3" d="M12.91,32.86H8.34a1.23,1.23,0,0,1-1.22-1.25V8.4A1.24,1.24,0,0,1,8.34,7.15H30.91A1.23,1.23,0,0,1,32.12,8.4a1.08,1.08,0,0,0,2.15,0A3.37,3.37,0,0,0,30.91,5H8.34A3.37,3.37,0,0,0,5,8.4V31.61A3.37,3.37,0,0,0,8.34,35h4.57a1.07,1.07,0,0,0,0-2.14Z"/></svg>