<svg id="图层_1" data-name="图层 1" xmlns="http://www.w3.org/2000/svg" xmlns:xlink="http://www.w3.org/1999/xlink" viewBox="0 0 40 40"><defs><style>.cls-1{fill:none;}.cls-2{clip-path:url(#clip-path);}.cls-3{fill:#fff;}</style><clipPath id="clip-path"><rect id="SVGID" class="cls-1" x="6.03" y="5.06" width="29.93" height="29.96"/></clipPath></defs><title>任务调度</title><g class="cls-2"><path class="cls-3" d="M31.39,5.08H10.57A4.65,4.65,0,0,0,6,9.79V30.27A4.65,4.65,0,0,0,10.57,35H31.39a4.65,4.65,0,0,0,4.54-4.71V9.79a4.56,4.56,0,0,0-4.54-4.71Zm2.34,25.35a2.36,2.36,0,0,1-2.34,2.43H10.58a2.37,2.37,0,0,1-2.35-2.43V9.79a2.36,2.36,0,0,1,2.35-2.43H31.39a2.36,2.36,0,0,1,2.35,2.43V30.43ZM17,12.52,13.8,15.86l-1.47-1.52a.94.94,0,0,0-1.46,0,1,1,0,0,0,0,1.52l2.34,2.42a1.23,1.23,0,0,0,.88.31c.44,0,.44-.16.88-.31l4-4.09a1,1,0,0,0,0-1.52c-.88-.46-1.47-.46-1.91-.15Zm13.49,1.82H20.39a.94.94,0,0,0-1,1.06.94.94,0,0,0,1,1.06H30.51a.94.94,0,0,0,1-1.06,1,1,0,0,0-1-1.06ZM14.38,21.17a3.49,3.49,0,1,0,3.37,3.49,3.38,3.38,0,0,0-3.37-3.49Zm0,4.55a1.22,1.22,0,0,1,0-2.43,1.1,1.1,0,0,1,1.18,1.22,1.18,1.18,0,0,1-1.18,1.21Zm16.13-2.27H20.4a.94.94,0,0,0-1,1.06,1,1,0,0,0,1,1.06H30.51a1,1,0,0,0,1-1.06,1,1,0,0,0-1-1.06Zm0,0"/></g></svg>