<svg id="图层_1" data-name="图层 1" xmlns="http://www.w3.org/2000/svg" viewBox="0 0 32 32"><defs><style>.cls-1{fill:#fff;}</style></defs><title>准确</title><path class="cls-1" d="M15.35,23.72a7.34,7.34,0,1,1,7.33-7.34A7.34,7.34,0,0,1,15.35,23.72Zm0-12.67a5.34,5.34,0,1,0,5.33,5.33A5.33,5.33,0,0,0,15.35,11.05Z"/><path class="cls-1" d="M15.35,28.14A11.76,11.76,0,1,1,27.1,16.38,11.77,11.77,0,0,1,15.35,28.14Zm0-21.51a9.76,9.76,0,1,0,9.75,9.75A9.76,9.76,0,0,0,15.35,6.63Z"/><path class="cls-1" d="M16,17.05a1,1,0,0,1-.71-.29,1,1,0,0,1,0-1.42L25.89,4.78A1,1,0,0,1,27.3,6.19L16.74,16.76A1,1,0,0,1,16,17.05Z"/></svg>