<svg id="图层_1" data-name="图层 1" xmlns="http://www.w3.org/2000/svg" viewBox="0 0 32 32"><defs><style>.cls-1{fill:#fff;}</style></defs><title>合规</title><path class="cls-1" d="M16.6,28.44a13,13,0,1,1,13-13A13,13,0,0,1,16.6,28.44Zm0-24a11,11,0,1,0,11,11A11,11,0,0,0,16.6,4.44Z"/><path class="cls-1" d="M20.54,19H19.09A1.09,1.09,0,0,1,18,17.89V15.14a2.06,2.06,0,0,1,.69-1.6A3.26,3.26,0,1,0,13.33,11a3.22,3.22,0,0,0,1.19,2.51,2,2,0,0,1,.68,1.56v2.78A1.09,1.09,0,0,1,14.1,19H12.65a2.12,2.12,0,0,0-2.12,2.12v.13a.55.55,0,0,0,.54.55H22.12a.55.55,0,0,0,.54-.55V21.1A2.12,2.12,0,0,0,20.54,19Z"/></svg>