<svg id="图层_1" data-name="图层 1" xmlns="http://www.w3.org/2000/svg" viewBox="0 0 30 30"><defs><style>.cls-1{fill:#fff;}</style></defs><title>天平</title><path class="cls-1" d="M14.86,25.2h0a1.25,1.25,0,0,1-1.24-1.26l.11-19A1.24,1.24,0,0,1,15,3.75h0A1.26,1.26,0,0,1,16.22,5L16.11,24A1.26,1.26,0,0,1,14.86,25.2Z"/><path class="cls-1" d="M20.94,26.56H8.44a1.25,1.25,0,1,1,0-2.5h12.5a1.25,1.25,0,0,1,0,2.5Z"/><path class="cls-1" d="M21.56,9.06H7.81a1.25,1.25,0,1,1,0-2.5H21.56a1.25,1.25,0,0,1,0,2.5Z"/><path class="cls-1" d="M7.81,20.31c-4,0-5.5-4.41-5.56-4.6a1.28,1.28,0,0,1,.11-1l4.37-7.5a1.27,1.27,0,0,1,1.08-.62,1.25,1.25,0,0,1,1.08.62l4.38,7.5a1.24,1.24,0,0,1,.1,1C13.31,15.9,11.79,20.31,7.81,20.31Zm-3-4.91c.4.83,1.37,2.41,3,2.41s2.59-1.58,3-2.41l-3-5.11Z"/><path class="cls-1" d="M21.56,20.94c-4,0-5.5-4.42-5.56-4.61a1.27,1.27,0,0,1,.12-1L20.8,7.48A1.25,1.25,0,0,1,23,7.55l4.07,7.81a1.26,1.26,0,0,1,.07,1C27.06,16.52,25.54,20.94,21.56,20.94Zm-3-4.9c.39.82,1.36,2.4,3,2.4s2.61-1.63,3-2.44L21.8,10.68Z"/></svg>