<svg id="图层_1" data-name="图层 1" xmlns="http://www.w3.org/2000/svg" viewBox="0 0 48 48"><defs><style>.cls-1{fill:#fff;}</style></defs><title>天气</title><path class="cls-1" d="M25.62,6.19a1.14,1.14,0,0,1,.65,1.52l-1.1,2.5a1.22,1.22,0,0,1-1.12.71,1.27,1.27,0,0,1-.47-.09,1.18,1.18,0,0,1-.65-.63,1.15,1.15,0,0,1,0-.89L24,6.81a1.27,1.27,0,0,1,.66-.63,1.3,1.3,0,0,1,.93,0Zm-5.85,7.74a5.92,5.92,0,0,0-3.32,10.74,4.42,4.42,0,0,1,2.17.57,9.72,9.72,0,0,1,7-5c0-.13,0-.27,0-.4a5.86,5.86,0,0,0-5.82-5.9Zm7.39,8.56a7.37,7.37,0,0,0-7,5,1.18,1.18,0,0,1-1.11.81,1.16,1.16,0,0,1-.91-.44,2.23,2.23,0,0,0-1.72-.84,1.12,1.12,0,0,1-.41,0,2.29,2.29,0,0,0-1.86,2.25,2,2,0,0,0,.07.54,1.23,1.23,0,0,1-.18.95,1.13,1.13,0,0,1-.81.51,4.06,4.06,0,0,0,.57,8.09H35.58a3.94,3.94,0,0,0,2.86-1.13,4,4,0,0,0,1.21-2.88,4.07,4.07,0,0,0-1.17-2.86,4,4,0,0,0-2.82-1.24,1.19,1.19,0,0,1-1.14-1.22V30a7.43,7.43,0,0,0-7.36-7.46ZM19.77,11.54A8.25,8.25,0,0,1,28,19.83c0,.1,0,.2,0,.3a9.74,9.74,0,0,1,8.89,8.94,6.33,6.33,0,0,1,3.33,1.83,6.58,6.58,0,0,1-.06,9.19A6.35,6.35,0,0,1,35.58,42H13.83a6.55,6.55,0,0,1-2-12.76,4.68,4.68,0,0,1,2-3.74,8.32,8.32,0,0,1,6-14Zm10.17,5a1.22,1.22,0,0,1-1.13-.73,1.1,1.1,0,0,1,0-.89,1.15,1.15,0,0,1,.66-.62l2.54-1a1.25,1.25,0,0,1,.93,0,1.17,1.17,0,0,1,.65.64,1.14,1.14,0,0,1-.67,1.51l-2.54,1a1.17,1.17,0,0,1-.45.09ZM7.21,25.38a1.18,1.18,0,0,1-1.12-.72,1.16,1.16,0,0,1,.67-1.52l2.61-1A1.44,1.44,0,0,1,9.83,22a1.21,1.21,0,0,1,1.13.72,1.14,1.14,0,0,1,0,.89,1.2,1.2,0,0,1-.66.63l-2.62,1a1.21,1.21,0,0,1-.46.08Zm2.68-8.95a1.27,1.27,0,0,1-.47-.09L6.81,15.29a1.15,1.15,0,0,1-.64-1.52,1.17,1.17,0,0,1,.66-.63,1.25,1.25,0,0,1,.93,0l2.6,1a1.18,1.18,0,0,1,.65.63,1.15,1.15,0,0,1,0,.89,1.2,1.2,0,0,1-1.12.71Zm6-5.59a1.22,1.22,0,0,1-1.13-.73L13.67,7.6a1.15,1.15,0,0,1,.67-1.51A1.13,1.13,0,0,1,14.79,6a1.23,1.23,0,0,1,1.13.72L17,9.24a1.1,1.1,0,0,1,0,.89,1.18,1.18,0,0,1-.66.62,1.17,1.17,0,0,1-.45.09Zm0,0"/></svg>