<svg id="图层_1" data-name="图层 1" xmlns="http://www.w3.org/2000/svg" xmlns:xlink="http://www.w3.org/1999/xlink" viewBox="0 0 32 32"><defs><style>.cls-1{fill:none;}.cls-2{clip-path:url(#clip-path);}.cls-3{fill:#fff;}</style><clipPath id="clip-path"><rect id="SVGID" class="cls-1" x="4.06" y="3.54" width="22.9" height="25.33"/></clipPath></defs><title>安全</title><g class="cls-2"><path class="cls-3" d="M26.58,5.54a30.53,30.53,0,0,0-11.07-2,30.55,30.55,0,0,0-11.08,2,.92.92,0,0,0-.38.72V17.64c0,4.69,7.07,9.2,11.26,11.19h.39c4.2-2,11.26-6.5,11.26-11.19V6.26a.92.92,0,0,0-.38-.72Zm-1.53,12c0,3.07-4.77,6.86-9.54,9.39C10.73,24.54,6,20.57,6,17.5V7A28.93,28.93,0,0,1,25.05,7Zm0,0"/></g><path class="cls-3" d="M14,17.45l5.12-5.13a.89.89,0,1,1,1.26,1.26l-5.76,5.76a.86.86,0,0,1-1.25,0l-3.15-3.15a.89.89,0,1,1,1.26-1.26Zm0,0"/></svg>