<svg id="图层_1" data-name="图层 1" xmlns="http://www.w3.org/2000/svg" xmlns:xlink="http://www.w3.org/1999/xlink" viewBox="0 0 24 24"><defs><style>.cls-1{fill:none;}.cls-2{clip-path:url(#clip-path);}.cls-3{clip-path:url(#clip-path-2);}.cls-4{fill:#fff;}</style><clipPath id="clip-path"><rect id="SVGID" class="cls-1" x="-23.11" y="3.67" width="18" height="16.73"/></clipPath><clipPath id="clip-path-2"><rect id="SVGID-2" data-name="SVGID" class="cls-1" x="3.89" y="2.99" width="15.97" height="18.68"/></clipPath></defs><title>报表管理</title><g class="cls-2"><g class="cls-3"><path d="M18.71,21.64H5.05a1.16,1.16,0,0,1-1.16-1.15V4.16A1.16,1.16,0,0,1,5.05,3H18.71a1.16,1.16,0,0,1,1.16,1.16V20.49a1.16,1.16,0,0,1-1.16,1.15ZM18.57,4.9a.59.59,0,0,0-.6-.6H5.83a.59.59,0,0,0-.6.6V19.73a.59.59,0,0,0,.6.59H18a.59.59,0,0,0,.6-.59ZM16.25,9.66H7.55A.64.64,0,0,1,7,9a.66.66,0,0,1,.6-.67h8.7a.66.66,0,0,1,.6.67.64.64,0,0,1-.6.66Zm0,3.36H7.52a.64.64,0,0,1-.59-.66.67.67,0,0,1,.59-.68h8.71a.67.67,0,0,1,.59.68.64.64,0,0,1-.59.66Zm0,3.3H7.52a.64.64,0,0,1-.59-.66A.67.67,0,0,1,7.52,15h8.71a.67.67,0,0,1,.59.68.64.64,0,0,1-.59.66Zm0,0"/></g></g><g class="cls-3"><path class="cls-4" d="M18.71,21.64H5.05a1.16,1.16,0,0,1-1.16-1.15V4.16A1.16,1.16,0,0,1,5.05,3H18.71a1.16,1.16,0,0,1,1.16,1.16V20.49a1.16,1.16,0,0,1-1.16,1.15ZM18.57,4.9a.59.59,0,0,0-.6-.6H5.83a.59.59,0,0,0-.6.6V19.73a.59.59,0,0,0,.6.59H18a.59.59,0,0,0,.6-.59ZM16.25,9.66H7.55A.64.64,0,0,1,7,9a.66.66,0,0,1,.6-.67h8.7a.66.66,0,0,1,.6.67.64.64,0,0,1-.6.66Zm0,3.36H7.52a.64.64,0,0,1-.59-.66.67.67,0,0,1,.59-.68h8.71a.67.67,0,0,1,.59.68.64.64,0,0,1-.59.66Zm0,3.3H7.52a.64.64,0,0,1-.59-.66A.67.67,0,0,1,7.52,15h8.71a.67.67,0,0,1,.59.68.64.64,0,0,1-.59.66Zm0,0"/></g></svg>