<svg id="图层_1" data-name="图层 1" xmlns="http://www.w3.org/2000/svg" viewBox="0 0 40 40"><defs><style>.cls-1{fill:#fff;}</style></defs><title>数据</title><path class="cls-1" d="M33.3,33.06H8A3.46,3.46,0,0,1,4.55,29.6V8.39a1.25,1.25,0,1,1,2.5,0V29.6a1,1,0,0,0,1,1H33.3a1.25,1.25,0,0,1,0,2.5Z"/><path class="cls-1" d="M11.21,25.89a1.21,1.21,0,0,1-.88-.37,1.25,1.25,0,0,1,0-1.77l6.46-6.45a1.26,1.26,0,0,1,.88-.37h0a1.26,1.26,0,0,1,.88.37l3.34,3.34,6-6a1.25,1.25,0,1,1,1.76,1.77l-6.87,6.88a1.26,1.26,0,0,1-.89.37h0a1.22,1.22,0,0,1-.88-.37L17.67,20,12.1,25.52A1.25,1.25,0,0,1,11.21,25.89Z"/><path class="cls-1" d="M32.52,10.89H26a.78.78,0,0,0-.55,1.33L32,18.73a.78.78,0,0,0,1.33-.55V11.67A.78.78,0,0,0,32.52,10.89Z"/></svg>