<svg id="图层_1" data-name="图层 1" xmlns="http://www.w3.org/2000/svg" xmlns:xlink="http://www.w3.org/1999/xlink" viewBox="0 0 32 32"><defs><style>.cls-1{fill:none;}.cls-2{clip-path:url(#clip-path);}.cls-3{fill:#fff;}</style><clipPath id="clip-path"><rect id="SVGID" class="cls-1" x="5.06" y="3.44" width="21.51" height="26"/></clipPath></defs><title>无限制</title><g class="cls-2"><path class="cls-3" d="M15.87,3.46,5.63,6.63a1,1,0,0,0-.57.87V20.19a9.54,9.54,0,0,0,2.45,4.18C9.09,26,13,28,14.72,28.84c.29.14.43.28.57.28l.29.29H16l.28-.14c1-.43,5.92-2.89,7.79-4.76a7.36,7.36,0,0,0,2.45-4.18V7.64A1,1,0,0,0,26,6.78ZM25,20a8.61,8.61,0,0,1-2,3.32c-1.45,1.44-5.48,3.46-6.92,4.18h-.44c-1.44-.72-5.33-2.74-6.77-4.18a6.16,6.16,0,0,1-2-3.32V8.36c0-.14.14-.29.29-.43l8.65-2.74h.57L25,7.93c.15,0,.29.14.29.43ZM16,9.52a3.84,3.84,0,0,1,2.59,1,3.6,3.6,0,0,1,1.15,2.59,3.64,3.64,0,0,1-1.15,2.6,4.87,4.87,0,0,1-1.73,1v1.59h1.59c.28,0,.43.14.72.29a1.11,1.11,0,0,1,.29.72.78.78,0,0,1-.29.58,1.15,1.15,0,0,1-.72.29H16.88v2.59a.75.75,0,0,1-.29.58,1.11,1.11,0,0,1-.57.29c-.29,0-.44-.15-.73-.29a1.15,1.15,0,0,1-.28-.72V16.72a4.75,4.75,0,0,1-1.73-.86,4.53,4.53,0,0,1-1-2.74,3.6,3.6,0,0,1,1.15-2.59,4.14,4.14,0,0,1,2.6-1Zm2.3,3.6a3.12,3.12,0,0,0-.57-1.59,2.28,2.28,0,0,0-3.18,0,2.34,2.34,0,0,0-.72,1.59,3,3,0,0,0,.58,1.59,2.17,2.17,0,0,0,1.59.57,2.16,2.16,0,0,0,2.3-2.16Zm0,0"/></g></svg>