<svg id="图层_1" data-name="图层 1" xmlns="http://www.w3.org/2000/svg" xmlns:xlink="http://www.w3.org/1999/xlink" viewBox="0 0 40 40"><defs><style>.cls-1{fill:none;}.cls-2{clip-path:url(#clip-path);}.cls-3{fill:#fff;}</style><clipPath id="clip-path"><rect id="SVGID" class="cls-1" x="4.96" y="5.12" width="30" height="30.05"/></clipPath></defs><title>模式操作</title><g class="cls-2"><path class="cls-3" d="M29.31,24.45h-2a3.74,3.74,0,0,0-3.66-2.81A3.81,3.81,0,0,0,20,24.45H10.58a.94.94,0,1,0,0,1.87H20a3.74,3.74,0,0,0,3.65,2.81,3.83,3.83,0,0,0,3.66-2.81h2a.94.94,0,1,0,0-1.87Zm-5.62,3.18a2.25,2.25,0,1,1,2.25-2.25,2.28,2.28,0,0,1-2.25,2.25Zm5.62-13.11H18.92a3.74,3.74,0,0,0-3.66-2.81,3.81,3.81,0,0,0-3.65,2.81h-1a.94.94,0,1,0,0,1.87h1a3.73,3.73,0,0,0,3.65,2.81,3.83,3.83,0,0,0,3.66-2.81H29.31a.94.94,0,1,0,0-1.87Zm-14,3.18a2.25,2.25,0,1,1,2.25-2.25,2.29,2.29,0,0,1-2.25,2.25ZM31.19,5.15H8.71A3.75,3.75,0,0,0,5,8.9V31.38a3.75,3.75,0,0,0,3.75,3.74H31.19a3.75,3.75,0,0,0,3.74-3.74V8.9a3.75,3.75,0,0,0-3.74-3.75Zm1.87,26.23a1.87,1.87,0,0,1-1.87,1.87H8.71a1.88,1.88,0,0,1-1.88-1.87V8.9A1.88,1.88,0,0,1,8.71,7H31.19A1.88,1.88,0,0,1,33.06,8.9Zm0,0"/></g></svg>