<svg id="图层_1" data-name="图层 1" xmlns="http://www.w3.org/2000/svg" xmlns:xlink="http://www.w3.org/1999/xlink" viewBox="0 0 40 40"><defs><style>.cls-1{fill:none;}.cls-2{opacity:0;}.cls-3{clip-path:url(#clip-path);}.cls-4{fill:#fff;}</style><clipPath id="clip-path"><rect id="SVGID" class="cls-1" x="5.19" y="5.83" width="29.72" height="27.5"/></clipPath></defs><title>流程控制</title><rect class="cls-2" width="40" height="40"/><g class="cls-3"><path class="cls-4" d="M16.61,8.15V15h6.86V8.15Zm0-2.29h6.86a2.29,2.29,0,0,1,2.29,2.29V15a2.26,2.26,0,0,1-.67,1.61,2.29,2.29,0,0,1-1.62.67H16.61A2.28,2.28,0,0,1,14.33,15V8.15a2.29,2.29,0,0,1,2.28-2.29Zm0,0"/><path class="cls-4" d="M7.47,28.72V31H9.76V28.72ZM6.33,26.44H10.9A1.14,1.14,0,0,1,12,27.58v4.57A1.15,1.15,0,0,1,10.9,33.3H6.33a1.15,1.15,0,0,1-1.14-1.15V27.58a1.14,1.14,0,0,1,1.14-1.14ZM18.9,28.72V31h2.29V28.72Zm-1.14-2.28h4.57a1.14,1.14,0,0,1,1.14,1.14v4.57a1.15,1.15,0,0,1-1.14,1.15H17.76a1.16,1.16,0,0,1-1.15-1.15V27.58a1.15,1.15,0,0,1,1.15-1.14Zm12.57,2.28V31h2.29V28.72Zm-1.14-2.28h4.57a1.14,1.14,0,0,1,1.14,1.14v4.57a1.15,1.15,0,0,1-1.14,1.15H29.19A1.16,1.16,0,0,1,28,32.15V27.58a1.15,1.15,0,0,1,1.15-1.14Zm0,0"/></g><rect class="cls-4" x="18.9" y="17.29" width="2.29" height="9.14"/><path class="cls-4" d="M30.33,19.58h.55a1.74,1.74,0,0,1,1.74,1.74v5.12H30.33V21.87H9.76v4.57H7.47V21.32a1.74,1.74,0,0,1,1.74-1.74Zm0,0"/></svg>