<svg id="图层_1" data-name="图层 1" xmlns="http://www.w3.org/2000/svg" viewBox="0 0 32 32"><defs><style>.cls-1{opacity:0;}.cls-2{fill:#fff;}</style></defs><title>灵活</title><rect class="cls-1" width="32" height="32"/><path class="cls-2" d="M15.59,3.44a13,13,0,0,0,0,26,1.18,1.18,0,0,0,1.12-1.18,1.19,1.19,0,0,0-1.12-1.18A10.64,10.64,0,1,1,26.24,16.44a1.18,1.18,0,1,0,2.36,0,13,13,0,0,0-13-13Zm0,0"/><path class="cls-2" d="M15.59,9.18a1.18,1.18,0,0,0-1,1.77,1.17,1.17,0,0,0,1,.59,4.91,4.91,0,1,1-4.9,4.9,1.17,1.17,0,0,0-.59-1,1.18,1.18,0,0,0-1.77,1,7.27,7.27,0,1,0,7.26-7.26Zm0,0"/></svg>