<svg id="图层_1" data-name="图层 1" xmlns="http://www.w3.org/2000/svg" viewBox="0 0 24 24"><defs><style>.cls-1{fill:#fff;}</style></defs><title>税务管理</title><path class="cls-1" d="M12,22a9.75,9.75,0,1,1,9.75-9.75A9.76,9.76,0,0,1,12,22ZM12,3.79a8.5,8.5,0,1,0,8.5,8.5A8.51,8.51,0,0,0,12,3.79Z"/><path class="cls-1" d="M10.6,13.74a11.32,11.32,0,0,0-.56-1v3.67H9V13.16A8.49,8.49,0,0,1,8,15,5.66,5.66,0,0,0,7.49,14,8.51,8.51,0,0,0,8.8,11.56H7.68v-1H9V9.47c-.35.06-.69.12-1,.15a4.51,4.51,0,0,0-.28-.83,14,14,0,0,0,2.83-.73l.6.87A8.2,8.2,0,0,1,10,9.25v1.31h1.08v1H10v.13c.24.22,1,1,1.15,1.2ZM15,15.36c.14,0,.17-.13.2-1.08a2.47,2.47,0,0,0,.87.39c-.09,1.27-.34,1.61-.95,1.61h-.59c-.78,0-.94-.29-.94-1.2V12.86h-.47c-.12,1.59-.47,2.84-2,3.58a3.49,3.49,0,0,0-.63-.84c1.3-.57,1.54-1.51,1.63-2.74h-.82v-3h.93a8.16,8.16,0,0,0-.7-1.38l.88-.38a5.84,5.84,0,0,1,.82,1.52l-.54.24h1A10.22,10.22,0,0,0,14.34,8l1.11.35c-.23.48-.46,1-.69,1.42h.87v3h-1v2.21c0,.27,0,.29.14.29Zm-.48-4.61H12.33v1.18h2.23Z"/></svg>