<svg id="图层_1" data-name="图层 1" xmlns="http://www.w3.org/2000/svg" xmlns:xlink="http://www.w3.org/1999/xlink" viewBox="0 0 40 40"><defs><style>.cls-1{fill:none;}.cls-2{clip-path:url(#clip-path);}.cls-3{fill:#fff;}</style><clipPath id="clip-path"><rect id="SVGID" class="cls-1" x="4.96" y="6.19" width="29.52" height="28.17"/></clipPath></defs><title>系统集成</title><g class="cls-2"><path class="cls-3" d="M19.72,14.41a5.86,5.86,0,0,0,0,11.72,6.85,6.85,0,0,0,1-.1.85.85,0,0,0,.67-1,.82.82,0,0,0-1-.67,4.19,4.19,0,1,1,3.41-4.11,4.25,4.25,0,0,1-.07.74.83.83,0,1,0,1.64.31,5.83,5.83,0,0,0-5.72-6.91Zm14.49,3.08a.71.71,0,0,0-.54-.56,5.63,5.63,0,0,1-4.1-7.15A.7.7,0,0,0,29.35,9a14.57,14.57,0,0,0-4.79-2.78.72.72,0,0,0-.75.18,5.56,5.56,0,0,1-8.19,0,.72.72,0,0,0-.75-.19A14.88,14.88,0,0,0,10.08,9a.72.72,0,0,0-.21.74,5.64,5.64,0,0,1-4.1,7.15.69.69,0,0,0-.54.56,14.45,14.45,0,0,0,0,5.56.71.71,0,0,0,.53.56,5.55,5.55,0,0,1,3.61,2.67,5.63,5.63,0,0,1,.5,4.47.71.71,0,0,0,.21.74,14.8,14.8,0,0,0,4.79,2.79.66.66,0,0,0,.23,0,.73.73,0,0,0,.52-.22,5.56,5.56,0,0,1,8.19,0,.72.72,0,0,0,.75.18,14.57,14.57,0,0,0,4.79-2.78.73.73,0,0,0,.22-.75,5.62,5.62,0,0,1,4.1-7.14.71.71,0,0,0,.54-.56,15,15,0,0,0,0-5.56Zm-2.05,4.75a6.63,6.63,0,0,0-3.83,3,6.75,6.75,0,0,0-.7,4.84,12.63,12.63,0,0,1-3.39,2,6.5,6.5,0,0,0-4.52-1.81,6.66,6.66,0,0,0-4.53,1.81,12.58,12.58,0,0,1-3.38-2,6.65,6.65,0,0,0-4.53-7.88,12.21,12.21,0,0,1,0-3.94,6.68,6.68,0,0,0,3.82-3,6.75,6.75,0,0,0,.71-4.84,12.07,12.07,0,0,1,3.38-2,6.64,6.64,0,0,0,4.53,1.81,6.5,6.5,0,0,0,4.52-1.81,12.63,12.63,0,0,1,3.39,2,6.63,6.63,0,0,0,4.52,7.88,12.6,12.6,0,0,1,0,3.94Zm0,0"/></g></svg>