<svg id="图层_1" data-name="图层 1" xmlns="http://www.w3.org/2000/svg" viewBox="0 0 32 32"><defs><style>.cls-1{fill:#fff;}</style></defs><title>经济</title><path class="cls-1" d="M16.46,29.06a13,13,0,1,1,13-13A13,13,0,0,1,16.46,29.06Zm0-24a11,11,0,1,0,11,11A11,11,0,0,0,16.46,5.06Z"/><path class="cls-1" d="M21.46,21.39h-10a1,1,0,0,1,0-2h9v-2h-8.8a1,1,0,0,1-1-1v-4a1,1,0,0,1,1-1h9.8a1,1,0,0,1,0,2h-8.8v2h8.8a1,1,0,0,1,1,1v4A1,1,0,0,1,21.46,21.39Z"/><path class="cls-1" d="M16.31,23.39a1,1,0,0,1-1-1v-12a1,1,0,0,1,2,0v12A1,1,0,0,1,16.31,23.39Z"/></svg>