<svg id="图层_1" data-name="图层 1" xmlns="http://www.w3.org/2000/svg" xmlns:xlink="http://www.w3.org/1999/xlink" viewBox="0 0 30 30"><defs><style>.cls-1{fill:none;}.cls-2{clip-path:url(#clip-path);}.cls-3{fill:#fff;}</style><clipPath id="clip-path"><rect id="SVGID" class="cls-1" x="5" y="4.06" width="20" height="22.68"/></clipPath></defs><title>自动化处理工具</title><g class="cls-2"><path class="cls-3" d="M24.32,9.23l-8.66-5a1.37,1.37,0,0,0-1.33,0l-8.67,5A1.34,1.34,0,0,0,5,10.39v10a1.34,1.34,0,0,0,.66,1.16l8.67,5a1.32,1.32,0,0,0,1.33,0l8.66-5A1.33,1.33,0,0,0,25,20.38v-10a1.33,1.33,0,0,0-.67-1.16ZM15,6.93l6,3.45-6,3.47L9,10.41ZM7.66,12.74l6,3.42v6.91l-6-3.46Zm8.67,10.32V16.15l6-3.47v6.93Zm0,0"/></g></svg>