<svg id="图层_1" data-name="图层 1" xmlns="http://www.w3.org/2000/svg" xmlns:xlink="http://www.w3.org/1999/xlink" viewBox="0 0 24 24"><defs><style>.cls-1{fill:none;}.cls-2{clip-path:url(#clip-path);}.cls-3{fill:#fff;}</style><clipPath id="clip-path"><rect id="SVGID" class="cls-1" x="2.89" y="4.13" width="18" height="16.54"/></clipPath></defs><title>账期管理</title><g class="cls-2"><path class="cls-3" d="M18.33,20.64H5.43A2.54,2.54,0,0,1,2.89,18.1v-10A2.54,2.54,0,0,1,5.43,5.57H7.29V6.9H5.43A1.21,1.21,0,0,0,4.22,8.11v10a1.21,1.21,0,0,0,1.21,1.21h12.9a1.21,1.21,0,0,0,1.21-1.21v-10A1.21,1.21,0,0,0,18.33,6.9H16.6V5.57h1.73a2.54,2.54,0,0,1,2.54,2.54v10a2.54,2.54,0,0,1-2.54,2.54Zm0,0"/><path class="cls-3" d="M10,5.57h3.95V6.9H10ZM8.61,8.29A.66.66,0,0,1,8,7.62V4.79a.66.66,0,0,1,.66-.67.67.67,0,0,1,.67.67V7.62a.67.67,0,0,1-.67.67Zm6.66,0a.66.66,0,0,1-.66-.67V4.79a.66.66,0,0,1,.66-.67.67.67,0,0,1,.67.67V7.62a.67.67,0,0,1-.67.67ZM3.77,9.94H20.42v1.33H3.77Zm5.61,4.82h.47a.7.7,0,0,0,.54-.17.51.51,0,0,0,.14-.36.53.53,0,0,0-.15-.37.61.61,0,0,0-.45-.17.66.66,0,0,0-.68.57l-.92-.14a1.48,1.48,0,0,1,.55-.86A1.78,1.78,0,0,1,10,12.93a1.86,1.86,0,0,1,1.13.32,1,1,0,0,1-.3,1.87,1,1,0,0,1,.89,1.05,1.23,1.23,0,0,1-.45,1,2,2,0,0,1-1.27.37,1.81,1.81,0,0,1-1.22-.39,1.59,1.59,0,0,1-.55-1l1-.14a.75.75,0,0,0,.79.69.72.72,0,0,0,.5-.16.55.55,0,0,0,.19-.44.51.51,0,0,0-.17-.43,1.09,1.09,0,0,0-.67-.14h-.4Zm4.56,2.75a1.47,1.47,0,0,1-1.27-.65,2.81,2.81,0,0,1-.45-1.64,2.92,2.92,0,0,1,.44-1.63,1.59,1.59,0,0,1,2.58,0,2.81,2.81,0,0,1,.45,1.62,2.85,2.85,0,0,1-.45,1.64,1.47,1.47,0,0,1-1.3.66Zm0-3.84a.53.53,0,0,0-.52.34,3.65,3.65,0,0,0-.14,1.2,3.34,3.34,0,0,0,.15,1.2.52.52,0,0,0,.5.33.54.54,0,0,0,.51-.33,3.09,3.09,0,0,0,.15-1.16A3.41,3.41,0,0,0,14.46,14a.51.51,0,0,0-.5-.34Zm0,0"/></g></svg>