<svg id="图层_1" data-name="图层 1" xmlns="http://www.w3.org/2000/svg" xmlns:xlink="http://www.w3.org/1999/xlink" viewBox="0 0 24 24"><defs><style>.cls-1{fill:none;}.cls-2{clip-path:url(#clip-path);}.cls-3{fill:#fff;}</style><clipPath id="clip-path"><rect id="SVGID" class="cls-1" x="3.89" y="3.67" width="18" height="16.73"/></clipPath></defs><title>资产管理</title><g class="cls-2"><path class="cls-3" d="M17.9,14.38a1,1,0,0,1-.69-1.67,1,1,0,0,1,1.07-.21,1,1,0,0,1,.6.91.91.91,0,0,1-1,1Zm2.57-4.5a1,1,0,0,0-1-1h-13a1,1,0,0,0-1,1v8a1,1,0,0,0,1,1h13a1,1,0,0,0,1-1Zm-3-4.12c-.3-.75-1.19-.45-1.64-.3L10.67,7.34h6.78ZM20,20.38h-14A1.88,1.88,0,0,1,4.79,20a2.08,2.08,0,0,1-.9-1.66v-9a2,2,0,0,1,2-2l10-3.53c1.2-.37,2.77,0,3,1.5v2h1a2,2,0,0,1,1.43.59,2,2,0,0,1,.6,1.43v9a2,2,0,0,1-.53,1.43,2,2,0,0,1-1.4.6Zm0,0"/></g></svg>