<svg id="图层_1" data-name="图层 1" xmlns="http://www.w3.org/2000/svg" xmlns:xlink="http://www.w3.org/1999/xlink" viewBox="0 0 24 24"><defs><style>.cls-1{fill:none;}.cls-2{clip-path:url(#clip-path);}.cls-3{fill:#fff;}</style><clipPath id="clip-path"><rect id="SVGID" class="cls-1" x="3.39" y="3.23" width="16.93" height="17.93"/></clipPath></defs><title>资金管理</title><g class="cls-2"><path class="cls-3" d="M15.55,8.74l1.11-1.91.06-.16a1.74,1.74,0,0,0-.35-1.46,2.33,2.33,0,0,0-1.85-.67,5.33,5.33,0,0,0-.76.06.49.49,0,0,1-.35-.11L12,3.23h-.26L10.29,4.49a.44.44,0,0,1-.35.11,6.32,6.32,0,0,0-.75-.06,2.32,2.32,0,0,0-1.85.67A1.74,1.74,0,0,0,7,6.67l0,.06L8,8.41a.46.46,0,0,1-.1.56C6.3,10.25,3,13.43,3.43,17.06A6.24,6.24,0,0,0,5,21l.1.1.14.05H18.44l.14-.05.1-.1a6.19,6.19,0,0,0,1.59-3.88c.48-3.91-3.32-7.28-4.72-8.37ZM5.85,20.05a.45.45,0,0,1-.35-.16,5.6,5.6,0,0,1-1-2.91C4,13,9.14,9.37,9.19,9.33l.26-.18.06-.26L8.06,6.4a.64.64,0,0,1,.11-.48,1.4,1.4,0,0,1,1-.28,5.05,5.05,0,0,1,1,.11l.17,0,.18,0,1-.9a.44.44,0,0,1,.59,0l1,.9.18,0,.17,0a4.6,4.6,0,0,1,1-.11,1.42,1.42,0,0,1,1,.28.64.64,0,0,1,.1.48L14.2,8.89l.06.26.26.18c.05,0,5.14,3.68,4.66,7.7a5.67,5.67,0,0,1-1,2.86.48.48,0,0,1-.35.16Zm-.21,0"/></g><path class="cls-3" d="M11.14,16.8H9.45v-.7h1.69v-.63H9.45v-.7h1.37L9.18,11.5h1.46l.64,1.56c.18.48.36,1,.56,1.44h.05c.19-.49.39-1,.58-1.44l.63-1.56h1.41l-1.65,3.27h1.4v.7H12.54v.63h1.72v.7H12.54v1.64h-1.4Z"/></svg>