<svg id="图层_1" data-name="图层 1" xmlns="http://www.w3.org/2000/svg" xmlns:xlink="http://www.w3.org/1999/xlink" viewBox="0 0 32 32"><defs><style>.cls-1{fill:none;}.cls-2{fill:#fff;}.cls-3{clip-path:url(#clip-path);}</style><clipPath id="clip-path"><rect id="SVGID" class="cls-1" x="5.26" y="4.69" width="21.33" height="23"/></clipPath></defs><title>非入侵</title><path class="cls-2" d="M20.88,15.35a.82.82,0,0,0-.82.82A4.14,4.14,0,1,1,15.92,12a.82.82,0,1,0,0-1.64,5.79,5.79,0,1,0,5.78,5.78.82.82,0,0,0-.82-.82Zm0,0"/><g class="cls-3"><path class="cls-2" d="M20,8.81l-3.3,6.72,6.84-2.88-2.84-.91Zm0,0"/><path class="cls-2" d="M24.94,4.69H6.9A1.65,1.65,0,0,0,5.26,6.33V17a10.66,10.66,0,1,0,21.32,0V6.33a1.65,1.65,0,0,0-1.64-1.64Zm0,12.3a9,9,0,1,1-18,0V7.15a.82.82,0,0,1,.82-.82h16.4a.82.82,0,0,1,.82.82Zm0,0"/></g></svg>