<svg id="图层_1" data-name="图层 1" xmlns="http://www.w3.org/2000/svg" viewBox="0 0 32 32"><defs><style>.cls-1{fill:#fff;}</style></defs><title>高效</title><path class="cls-1" d="M26.64,26.45H6.4a2.77,2.77,0,0,1-2.76-2.77v-17a1,1,0,0,1,2,0v17a.77.77,0,0,0,.76.77H26.64a1,1,0,0,1,0,2Z"/><path class="cls-1" d="M9,20.71a1,1,0,0,1-.71-.29,1,1,0,0,1,0-1.42l5.17-5.16a1,1,0,0,1,.71-.29h0a1,1,0,0,1,.7.29l2.67,2.67,4.8-4.79a1,1,0,0,1,1.41,0,1,1,0,0,1,0,1.41l-5.5,5.5a1,1,0,0,1-.71.3h0a1,1,0,0,1-.7-.3L14.14,16,9.68,20.42A1,1,0,0,1,9,20.71Z"/><path class="cls-1" d="M26,8.71H20.81a.62.62,0,0,0-.44,1.06L25.58,15a.62.62,0,0,0,1.06-.44V9.33A.62.62,0,0,0,26,8.71Z"/></svg>